<mxfile host="65bd71144e">
    <diagram id="pvm0OCLOUL5b6bcCcdOz" name="第 1 页">
        <mxGraphModel dx="344" dy="496" grid="1" gridSize="10" guides="1" tooltips="1" connect="1" arrows="1" fold="1" page="1" pageScale="1" pageWidth="827" pageHeight="1169" math="0" shadow="0">
            <root>
                <mxCell id="0"/>
                <mxCell id="1" parent="0"/>
                <mxCell id="2" value="" style="childLayout=tableLayout;recursiveResize=0;shadow=0;fillColor=none;" vertex="1" parent="1">
                    <mxGeometry x="160" y="200" width="240" height="140" as="geometry"/>
                </mxCell>
                <mxCell id="3" value="" style="shape=tableRow;horizontal=0;startSize=0;swimlaneHead=0;swimlaneBody=0;top=0;left=0;bottom=0;right=0;dropTarget=0;collapsible=0;recursiveResize=0;expand=0;fontStyle=0;fillColor=none;strokeColor=inherit;" vertex="1" parent="2">
                    <mxGeometry width="240" height="47" as="geometry"/>
                </mxCell>
                <mxCell id="4" value="(0,0)" style="connectable=0;recursiveResize=0;strokeColor=#005700;fillColor=#008a00;align=center;whiteSpace=wrap;html=1;fontColor=#ffffff;" vertex="1" parent="3">
                    <mxGeometry width="80" height="47" as="geometry">
                        <mxRectangle width="80" height="47" as="alternateBounds"/>
                    </mxGeometry>
                </mxCell>
                <mxCell id="5" value="(0,1)" style="connectable=0;recursiveResize=0;strokeColor=#005700;fillColor=#008a00;align=center;whiteSpace=wrap;html=1;fontColor=#ffffff;" vertex="1" parent="3">
                    <mxGeometry x="80" width="80" height="47" as="geometry">
                        <mxRectangle width="80" height="47" as="alternateBounds"/>
                    </mxGeometry>
                </mxCell>
                <mxCell id="6" value="(0,2)" style="connectable=0;recursiveResize=0;strokeColor=#A50040;fillColor=#d80073;align=center;whiteSpace=wrap;html=1;fontColor=#ffffff;" vertex="1" parent="3">
                    <mxGeometry x="160" width="80" height="47" as="geometry">
                        <mxRectangle width="80" height="47" as="alternateBounds"/>
                    </mxGeometry>
                </mxCell>
                <mxCell id="7" style="shape=tableRow;horizontal=0;startSize=0;swimlaneHead=0;swimlaneBody=0;top=0;left=0;bottom=0;right=0;dropTarget=0;collapsible=0;recursiveResize=0;expand=0;fontStyle=0;fillColor=none;strokeColor=inherit;" vertex="1" parent="2">
                    <mxGeometry y="47" width="240" height="46" as="geometry"/>
                </mxCell>
                <mxCell id="8" value="(1,0)" style="connectable=0;recursiveResize=0;strokeColor=#005700;fillColor=#008a00;align=center;whiteSpace=wrap;html=1;fontColor=#ffffff;" vertex="1" parent="7">
                    <mxGeometry width="80" height="46" as="geometry">
                        <mxRectangle width="80" height="46" as="alternateBounds"/>
                    </mxGeometry>
                </mxCell>
                <mxCell id="9" value="(1,1)" style="connectable=0;recursiveResize=0;strokeColor=#005700;fillColor=#008a00;align=center;whiteSpace=wrap;html=1;fontColor=#ffffff;" vertex="1" parent="7">
                    <mxGeometry x="80" width="80" height="46" as="geometry">
                        <mxRectangle width="80" height="46" as="alternateBounds"/>
                    </mxGeometry>
                </mxCell>
                <mxCell id="10" value="(1,2)" style="connectable=0;recursiveResize=0;strokeColor=#A50040;fillColor=#d80073;align=center;whiteSpace=wrap;html=1;fontColor=#ffffff;" vertex="1" parent="7">
                    <mxGeometry x="160" width="80" height="46" as="geometry">
                        <mxRectangle width="80" height="46" as="alternateBounds"/>
                    </mxGeometry>
                </mxCell>
                <mxCell id="11" style="shape=tableRow;horizontal=0;startSize=0;swimlaneHead=0;swimlaneBody=0;top=0;left=0;bottom=0;right=0;dropTarget=0;collapsible=0;recursiveResize=0;expand=0;fontStyle=0;fillColor=none;strokeColor=inherit;" vertex="1" parent="2">
                    <mxGeometry y="93" width="240" height="47" as="geometry"/>
                </mxCell>
                <mxCell id="12" value="(2,0)" style="connectable=0;recursiveResize=0;strokeColor=#006EAF;fillColor=#1ba1e2;align=center;whiteSpace=wrap;html=1;fontColor=#ffffff;" vertex="1" parent="11">
                    <mxGeometry width="80" height="47" as="geometry">
                        <mxRectangle width="80" height="47" as="alternateBounds"/>
                    </mxGeometry>
                </mxCell>
                <mxCell id="13" value="(2,1)" style="connectable=0;recursiveResize=0;strokeColor=#006EAF;fillColor=#1ba1e2;align=center;whiteSpace=wrap;html=1;fontColor=#ffffff;" vertex="1" parent="11">
                    <mxGeometry x="80" width="80" height="47" as="geometry">
                        <mxRectangle width="80" height="47" as="alternateBounds"/>
                    </mxGeometry>
                </mxCell>
                <mxCell id="14" value="（2,2）" style="connectable=0;recursiveResize=0;strokeColor=inherit;fillColor=none;align=center;whiteSpace=wrap;html=1;" vertex="1" parent="11">
                    <mxGeometry x="160" width="80" height="47" as="geometry">
                        <mxRectangle width="80" height="47" as="alternateBounds"/>
                    </mxGeometry>
                </mxCell>
                <mxCell id="32" value="" style="childLayout=tableLayout;recursiveResize=0;shadow=0;fillColor=none;" vertex="1" parent="1">
                    <mxGeometry x="160" y="370" width="240" height="140" as="geometry"/>
                </mxCell>
                <mxCell id="33" value="" style="shape=tableRow;horizontal=0;startSize=0;swimlaneHead=0;swimlaneBody=0;top=0;left=0;bottom=0;right=0;dropTarget=0;collapsible=0;recursiveResize=0;expand=0;fontStyle=0;fillColor=none;strokeColor=inherit;" vertex="1" parent="32">
                    <mxGeometry width="240" height="47" as="geometry"/>
                </mxCell>
                <mxCell id="34" value="(0,0)" style="connectable=0;recursiveResize=0;strokeColor=#2D7600;fillColor=#60a917;align=center;whiteSpace=wrap;html=1;fontColor=#ffffff;" vertex="1" parent="33">
                    <mxGeometry width="80" height="47" as="geometry">
                        <mxRectangle width="80" height="47" as="alternateBounds"/>
                    </mxGeometry>
                </mxCell>
                <mxCell id="35" value="(0,1)" style="connectable=0;recursiveResize=0;strokeColor=#432D57;fillColor=#76608a;align=center;whiteSpace=wrap;html=1;fontColor=#ffffff;" vertex="1" parent="33">
                    <mxGeometry x="80" width="80" height="47" as="geometry">
                        <mxRectangle width="80" height="47" as="alternateBounds"/>
                    </mxGeometry>
                </mxCell>
                <mxCell id="36" value="(0,2)" style="connectable=0;recursiveResize=0;strokeColor=#432D57;fillColor=#76608a;align=center;whiteSpace=wrap;html=1;fontColor=#ffffff;" vertex="1" parent="33">
                    <mxGeometry x="160" width="80" height="47" as="geometry">
                        <mxRectangle width="80" height="47" as="alternateBounds"/>
                    </mxGeometry>
                </mxCell>
                <mxCell id="37" style="shape=tableRow;horizontal=0;startSize=0;swimlaneHead=0;swimlaneBody=0;top=0;left=0;bottom=0;right=0;dropTarget=0;collapsible=0;recursiveResize=0;expand=0;fontStyle=0;fillColor=none;strokeColor=inherit;" vertex="1" parent="32">
                    <mxGeometry y="47" width="240" height="46" as="geometry"/>
                </mxCell>
                <mxCell id="38" value="(1,0)" style="connectable=0;recursiveResize=0;strokeColor=#2D7600;fillColor=#60a917;align=center;whiteSpace=wrap;html=1;fontColor=#ffffff;" vertex="1" parent="37">
                    <mxGeometry width="80" height="46" as="geometry">
                        <mxRectangle width="80" height="46" as="alternateBounds"/>
                    </mxGeometry>
                </mxCell>
                <mxCell id="39" value="(1,1)" style="connectable=0;recursiveResize=0;strokeColor=#432D57;fillColor=#76608a;align=center;whiteSpace=wrap;html=1;fontColor=#ffffff;" vertex="1" parent="37">
                    <mxGeometry x="80" width="80" height="46" as="geometry">
                        <mxRectangle width="80" height="46" as="alternateBounds"/>
                    </mxGeometry>
                </mxCell>
                <mxCell id="40" value="(1,2)" style="connectable=0;recursiveResize=0;strokeColor=#432D57;fillColor=#76608a;align=center;whiteSpace=wrap;html=1;fontColor=#ffffff;" vertex="1" parent="37">
                    <mxGeometry x="160" width="80" height="46" as="geometry">
                        <mxRectangle width="80" height="46" as="alternateBounds"/>
                    </mxGeometry>
                </mxCell>
                <mxCell id="41" style="shape=tableRow;horizontal=0;startSize=0;swimlaneHead=0;swimlaneBody=0;top=0;left=0;bottom=0;right=0;dropTarget=0;collapsible=0;recursiveResize=0;expand=0;fontStyle=0;fillColor=none;strokeColor=inherit;" vertex="1" parent="32">
                    <mxGeometry y="93" width="240" height="47" as="geometry"/>
                </mxCell>
                <mxCell id="42" value="(2,0)" style="connectable=0;recursiveResize=0;strokeColor=#B09500;fillColor=#e3c800;align=center;whiteSpace=wrap;html=1;fontColor=#000000;" vertex="1" parent="41">
                    <mxGeometry width="80" height="47" as="geometry">
                        <mxRectangle width="80" height="47" as="alternateBounds"/>
                    </mxGeometry>
                </mxCell>
                <mxCell id="43" value="(2,1)" style="connectable=0;recursiveResize=0;align=center;whiteSpace=wrap;html=1;" vertex="1" parent="41">
                    <mxGeometry x="80" width="80" height="47" as="geometry">
                        <mxRectangle width="80" height="47" as="alternateBounds"/>
                    </mxGeometry>
                </mxCell>
                <mxCell id="44" value="（2,2）" style="connectable=0;recursiveResize=0;strokeColor=inherit;fillColor=none;align=center;whiteSpace=wrap;html=1;" vertex="1" parent="41">
                    <mxGeometry x="160" width="80" height="47" as="geometry">
                        <mxRectangle width="80" height="47" as="alternateBounds"/>
                    </mxGeometry>
                </mxCell>
            </root>
        </mxGraphModel>
    </diagram>
</mxfile>